<?xml version="1.0" encoding="UTF-8"?><svg id="_레이어_1" xmlns="http://www.w3.org/2000/svg" viewBox="0 0 1417.32 1417.32"><defs><style>.cls-1{fill:#2f4f4f;stroke-width:0px;}</style></defs><path class="cls-1" d="M235.58,654.32c0,6.08,3.27,9.35,9.35,9.35h115.47c5.61,0,10.05,4.44,10.05,10.29s-4.44,10.28-10.05,10.28h-60.31v22.44h75.5c5.61,0,10.05,4.68,10.05,10.52s-4.44,10.52-10.05,10.52h-175.3c-5.61,0-10.05-4.68-10.05-10.52s4.44-10.52,10.05-10.52h75.5v-22.44h-36.46c-17.76,0-28.05-10.28-28.05-28.05v-23.37c-5.61,0-10.05-4.44-10.05-10.28s4.44-10.29,10.05-10.29h147.95c5.61,0,10.05,4.44,10.05,10.29s-4.44,10.28-10.05,10.28h-123.64v21.5ZM214.31,768.38c-5.61,0-10.05-4.67-10.05-10.52s4.44-10.52,10.05-10.52h140.48c6.78,0,12.15,5.37,12.15,12.15v41.61c0,6.31-5.37,11.22-12.15,11.22s-12.15-4.91-12.15-11.22v-32.72h-128.32Z"/><path class="cls-1" d="M458.8,731.68l-35.53,57.26c-3.51,5.61-10.98,7.25-15.89,4.21-5.61-3.27-7.01-10.98-3.74-16.13l35.53-57.26c3.27-5.14,10.28-7.01,15.66-3.74,5.38,3.27,7.01,10.99,3.97,15.66ZM478.2,680.96c0,8.88.94,14.49,4.21,19.63l46.05,74.09c3.27,5.14,1.87,12.86-3.74,16.13-4.91,3.04-12.39,1.4-15.89-4.21l-46.51-74.8c-5.14-8.41-8.41-15.43-8.41-28.52v-59.84c0-6.31,5.37-11.22,12.15-11.22s12.15,4.91,12.15,11.22v57.5ZM580.11,796.9c0,6.31-5.38,11.22-12.15,11.22s-12.15-4.91-12.15-11.22v-102.61h-32.72c-5.61,0-10.05-4.91-10.05-10.75s4.44-10.75,10.05-10.75h32.72v-54.93c0-6.31,5.38-11.22,12.15-11.22s12.15,4.91,12.15,11.22v179.04Z"/><path class="cls-1" d="M620.78,651.98c-5.61,0-10.05-4.68-10.05-10.52s4.44-10.52,10.05-10.52h40.9v-14.72c0-6.31,5.38-11.22,12.15-11.22s12.15,4.91,12.15,11.22v14.72h40.91c5.61,0,10.05,4.68,10.05,10.52s-4.44,10.52-10.05,10.52h-106.12ZM620.78,751.55v-37.86c0-26.88,23.37-47.68,53.06-47.68s53.06,20.8,53.06,47.68v37.86c0,26.88-23.37,47.68-53.06,47.68s-53.06-20.8-53.06-47.68ZM703.05,714.15c0-15.43-12.15-27.58-29.22-27.58s-29.22,12.15-29.22,27.58v36.93c0,15.43,12.15,27.58,29.22,27.58s29.22-12.15,29.22-27.58v-36.93ZM785.79,693.58h17.53c5.61,0,10.05,4.91,10.05,10.75s-4.44,10.75-10.05,10.75h-17.53v81.81c0,6.31-5.38,11.22-12.15,11.22s-12.15-4.91-12.15-11.22v-179.04c0-6.31,5.38-11.22,12.15-11.22s12.15,4.91,12.15,11.22v75.73Z"/><path class="cls-1" d="M852.64,639.83c-9.58,0-17.76-2.8-23.37-9.58-4.44-5.38-3.74-13.09,1.64-17.3,5.38-4.21,12.62-2.57,16.83,1.87,2.34,2.57,5.14,3.97,9.58,3.97h41.37c21.97,0,40.9,20.8,40.9,47.92s-18.93,48.15-40.9,48.15h-29.45c-11.69,0-21.27,11.92-21.27,28.28s9.58,28.05,21.27,28.05h76.2c5.61,0,10.05,4.67,10.05,10.52s-4.44,10.52-10.05,10.52h-80.4c-21.97,0-40.91-21.04-40.91-48.38s18.93-48.62,40.91-48.62h29.45c11.69,0,21.27-11.69,21.27-27.81s-9.58-27.58-21.27-27.58h-41.84ZM996.15,693.58h17.53c5.61,0,10.05,4.91,10.05,10.75s-4.44,10.75-10.05,10.75h-17.53v81.81c0,6.31-5.38,11.22-12.15,11.22s-12.15-4.91-12.15-11.22v-179.04c0-6.31,5.38-11.22,12.15-11.22s12.15,4.91,12.15,11.22v75.73Z"/><path class="cls-1" d="M1143.88,728.65v27.11c0,6.31-5.38,11.22-12.15,11.22s-12.15-4.91-12.15-11.22v-27.11h-77.83c-5.61,0-10.05-4.68-10.05-10.52s4.44-10.52,10.05-10.52h175.3c5.61,0,10.05,4.68,10.05,10.52s-4.44,10.52-10.05,10.52h-73.16ZM1055.06,659.69l112.89-5.14c5.61-.23,10.05,3.74,10.28,9.35.23,5.61-3.74,10.05-9.35,10.28l-112.89,5.14c-5.61.23-10.05-3.74-10.29-9.35-.23-5.61,3.74-10.05,9.35-10.28ZM1058.1,632.81c-5.61,0-10.05-4.44-10.05-10.28s4.44-10.29,10.05-10.29h138.14c6.78,0,12.15,5.38,12.15,12.15v64.98c0,6.31-5.38,11.22-12.15,11.22s-12.15-4.91-12.15-11.22v-56.56h-125.98ZM1204.18,788.01c5.61,0,10.05,4.68,10.05,10.52s-4.44,10.52-10.05,10.52h-125.75c-17.77,0-28.05-10.28-28.05-28.05v-24.78c0-6.31,5.38-11.22,12.15-11.22s12.15,4.91,12.15,11.22v22.44c0,6.08,3.27,9.35,9.35,9.35h120.14Z"/><path class="cls-1" d="M66.57,189.73s-.61-.04-1.77-.08c-1.16.05-1.77.08-1.77.08h3.54Z"/></svg>