<?xml version="1.0" encoding="UTF-8"?><svg id="_레이어_1" xmlns="http://www.w3.org/2000/svg" viewBox="0 0 1417.32 1417.32"><defs><style>.cls-1{fill:#2f4f4f;stroke-width:0px;}</style></defs><path class="cls-1" d="M719.6,212.35s-.61-.04-1.77-.08c-1.16.05-1.77.08-1.77.08h3.54Z"/><polygon class="cls-1" points="709.13 998.22 711.19 998.22 709.13 997.14 709.13 998.22"/><rect class="cls-1" x="711.19" y="684.5" width="13.27" height="313.72"/><rect class="cls-1" x="711.19" y="683.08" width="13.27" height="1.42"/><path class="cls-1" d="M551.89,906.33c-.96.58-1.27,1.79-1.32,2.96-.23,41.16,6.06,77,28.76,121.19,5.43,10.28,12.15,20.86,19,30.4,30.59,42.64,59.85,86.5,81.12,119.61,4.29,6.64,8.27,12.97,12.07,18.85.85,1.22,1.81,2.28,3.06,3.14,72.8,25.03,155.13,38.64,230.86,39.06,4.79.05,6.84-.9,2.29-6.23-83.36-94.31-113-184.48-130.04-244.4-72.22-23.45-167.5-63.31-245.68-84.65l-.13.06Z"/><path class="cls-1" d="M484.04,1057.41c-34.18-52.29-15.55-123.61-.7-162.64.68-1.64,1.3-3.95-.42-4.92-103.45-15.52-209.05,36.06-228.71,181.62-3.35,22.02-2.47,47.28,4.58,67.73,35.14,100.82,185.73,125.56,211.07,91.04,33.11-34.18,86.92-43.55,141.67-41.36,5.71.27,12.12.77,16.76,1.22,1.51.12,2.58.07,2.71-.35-42.16-33.33-105.32-66.75-146.77-132.06l-.17-.27Z"/><path class="cls-1" d="M1134.73,917.62c.39-1.09.19-2.4-.3-3.83-2.17-5.74-4.61-11.37-7.12-16.89-7.53-18.38-31.41-56-33.08-56.24-1.37.31-2.17,1.7-3.71,3-5.7,5.48-11.34,9.65-18.3,13.42-23.18,13.74-52.71,10.74-57.3,9.66-.35.13-.58.69-.82,1.85-.39,2.04-.89,6.11-1.43,9.53-1.19,8.01-2.67,16.38-4.18,23.98-.4,2.09-.63,4.39.24,6.34,11.64,13.83,34.26,24.21,58.96,25.74,9.7.52,19.89-.21,29.22-1.93,13.27-2.44,24.88-6.75,34.54-11.56,1.32-.66,2.71-1.61,3.22-2.9l.06-.16Z"/><path class="cls-1" d="M983.13,935.76c-26.61,43.33-56.81,64.15-106.08,68.9-1.79.14-4.45.48-5.08,1.92,20.75,64.32,74.29,167.87,171.18,215.17,2.8,1.23,5.57,1.81,8.25,1.43,107.32-33.56,121.71-128.67,110.35-233.24-.39-3.74-2.03-6.17-5.97-5.67-78.68,9.95-143.33-11.86-169.62-47.47-.72-.93-1.72-2-2.9-1.14l-.13.09Z"/><polygon class="cls-1" points="883.8 671.93 771.94 709.77 771.94 688.18 884.29 649.99 883.8 671.93"/><polygon class="cls-1" points="866.47 722.46 771.94 754.44 771.94 732.67 865.87 700.89 866.47 722.46"/><polygon class="cls-1" points="838.65 773.59 771.94 796.46 771.91 777.98 837.25 755.24 838.65 773.59"/><path class="cls-1" d="M1015.72,725.42c.74-12.5-56.62-50-72.8-58.71-11.9-6.41-38.56,38.56-36.77,75.26,2.22,45.3,47.02,52.94,59.37,54.18,1.62.16,2.71,1.7,2.35,3.29-.24,1.03-.43,2.05-.6,3.05,27.19-16.73,47.81-66.35,48.45-77.07Z"/><path class="cls-1" d="M419.93,725.42c-.74-12.5,56.62-50,72.8-58.71,11.9-6.41,38.56,38.56,36.77,75.26-2.22,45.3-47.02,52.94-59.37,54.18-1.62.16-2.71,1.7-2.35,3.29.24,1.03.43,2.05.6,3.05-27.19-16.73-47.81-66.35-48.45-77.07Z"/><path class="cls-1" d="M639.68,443.81c0,26.07-13.66,35.5-30.51,35.5s-30.51-1.5-30.51-27.57,15.93-52.12,32.77-52.12,28.24,18.12,28.24,44.19Z"/><path class="cls-1" d="M795.98,443.81c0,26.07,13.66,35.5,30.51,35.5,16.85,0,30.51-1.5,30.51-27.57s-15.93-52.12-32.77-52.12c-16.85,0-28.24,18.12-28.24,44.19Z"/><path class="cls-1" d="M722.1,485.69l28.47-22.42c5.15-4.06,2.28-12.34-4.28-12.34h-56.94c-6.56,0-9.43,8.28-4.28,12.34l28.47,22.42c2.51,1.98,6.04,1.98,8.55,0Z"/><polygon class="cls-1" points="609.23 584.39 712.04 651.38 606.21 549.85 609.23 584.39"/><polygon class="cls-1" points="863.49 606.44 868.33 571.57 723.62 665.27 863.49 606.44"/><polygon class="cls-1" points="723.62 651.38 826.42 584.39 829.44 549.85 723.62 651.38"/><polygon class="cls-1" points="572.17 606.44 712.04 665.27 567.32 571.57 572.17 606.44"/><path class="cls-1" d="M719.6,212.35s-.61-.04-1.77-.08c-1.16.05-1.77.08-1.77.08h3.54Z"/><path class="cls-1" d="M1108.19,662.39c-26.47-52.39-73.72-63.42-73.72-63.42,0,0,19.85-24.63,25.37-35.3,27.94-44.57,30.15-87.14,31.87-111.21.19-2.66,1.48-5-.88-6.24-23.88-12.53-43.81-41.36-50.68-52.12-1.68-2.63-2.63-5.66-2.79-8.78-8-153.26-28.15-196.51-37.89-208.6-2.43-3.01-6.18-4.61-10.03-4.28-81.98,7-140.46,55.91-140.46,55.91-62.7-17.92-120.46-16.52-131.15-16.08,1.16.05,1.77.08,1.77.08h-3.54s.61-.04,1.77-.08c-10.69-.44-68.44-1.84-131.15,16.08,0,0-58.48-48.91-140.46-55.91-3.86-.33-7.6,1.26-10.03,4.28-9.74,12.09-29.89,55.34-37.89,208.6-.16,3.12-1.11,6.15-2.79,8.78-6.86,10.76-26.8,39.6-50.68,52.12-2.36,1.24-1.48,3.65-.88,6.24,6.88,29.58,11.03,64.3,30.17,102.94,5.52,10.66,27.07,43.57,27.07,43.57,0,0-47.25,11.03-73.72,63.42s-18.94,159.02,36.58,181.08c54.39,21.61,114.08,2.99,103-45.48-.36-1.58.73-3.12,2.35-3.29,8.07-.81,29.97-4.35,44.82-19.32l-15.04-190.99,212.02,98.69h13.27l212.02-98.69-15.04,190.99c14.85,14.97,36.75,18.51,44.82,19.32,1.62.16,2.71,1.7,2.35,3.29-11.08,48.48,48.6,67.09,103,45.48,55.52-22.06,63.06-128.69,36.58-181.08ZM490.72,329.83c-19.85,38.8-82.45,48.53-82.45,48.53,0,0,10.57-175.02,33.37-191.19,0,0,68.94,103.86,49.09,142.66ZM771.97,340.66c.87-10.35,28.36-27.75,53.51-27.22,26.16.56,31.62,7.73,30.76,18.07-.87,10.35-14.22,14.62-40.32,13.26-26.11-1.36-44.81,6.23-43.94-4.12ZM610.17,313.44c25.15-.54,52.64,16.87,53.51,27.22.87,10.35-17.83,2.75-43.94,4.12-26.11,1.36-39.46-2.91-40.32-13.26-.87-10.35,4.59-17.51,30.76-18.07ZM572.17,606.44l-4.85-34.87,144.72,93.7-139.87-58.83ZM609.23,584.39l-3.02-34.55,105.82,101.53-102.81-66.98ZM863.49,606.44l-139.87,58.83,144.72-93.7-4.85,34.87ZM723.62,651.38l105.82-101.53-3.02,34.55-102.81,66.98ZM783.34,512.1c-9.36-4.53-19.19-7.77-29.32-9.37-9.11-1.44-21.2-2.64-36.2-2.64s-27.09,1.2-36.2,2.64c-10.13,1.6-19.96,4.84-29.32,9.37-139.11,67.3-176.95-155.5,65.52-147.98,242.46-7.52,204.63,215.28,65.52,147.98ZM944.94,329.83c-19.85-38.8,49.09-142.66,49.09-142.66,22.8,16.18,33.37,191.19,33.37,191.19,0,0-62.6-9.73-82.45-48.53Z"/></svg>