<?xml version="1.0" encoding="UTF-8"?>
<svg id="_레이어_1" data-name="레이어 1" xmlns="http://www.w3.org/2000/svg" viewBox="0 0 1417.32 1417.32">
  <defs>
    <style>
      .cls-1 {
        fill: none;
      }

      .cls-1, .cls-2 {
        stroke-width: 0px;
      }

      .cls-2 {
        fill: #2f4f4f;
      }
    </style>
  </defs>
  <path class="cls-1" d="M737.76,466.97h-42.51c-6.56,0-9.43,8.28-4.28,12.34l21.26,16.74c2.51,1.98,6.04,1.98,8.55,0l21.26-16.74c5.15-4.06,2.28-12.34-4.28-12.34Z"/>
  <path class="cls-1" d="M611.28,375.08c-48.87,0-87.39,48.61-87.39,86.19s21.85,56.13,72.45,56.13c54.05,0,72.45-33.86,72.45-71.44s-19.39-70.88-57.5-70.88Z"/>
  <path class="cls-1" d="M719.6,212.35s-.61-.04-1.77-.08c-1.16.05-1.77.08-1.77.08h3.54Z"/>
  <path class="cls-1" d="M821.73,375.08c-38.11,0-57.5,33.3-57.5,70.88s18.4,71.44,72.45,71.44c50.6,0,72.45-18.56,72.45-56.13s-38.52-86.19-87.39-86.19Z"/>
  <path class="cls-1" d="M719.6,212.35s-.61-.04-1.77-.08c-1.16.05-1.77.08-1.77.08h3.54Z"/>
  <path class="cls-1" d="M611.28,375.08c-48.87,0-87.39,48.61-87.39,86.19s21.85,56.13,72.45,56.13c54.05,0,72.45-33.86,72.45-71.44s-19.39-70.88-57.5-70.88Z"/>
  <path class="cls-1" d="M821.73,375.08c-38.11,0-57.5,33.3-57.5,70.88s18.4,71.44,72.45,71.44c50.6,0,72.45-18.56,72.45-56.13s-38.52-86.19-87.39-86.19Z"/>
  <path class="cls-2" d="M719.6,212.35s-.61-.04-1.77-.08c-1.16.05-1.77.08-1.77.08h3.54Z"/>
  <path class="cls-2" d="M618.02,416.43c-16.38,0-31.86,25.32-31.86,50.67s13.28,26.8,29.66,26.8,29.66-9.17,29.66-34.51-11.07-42.96-27.45-42.96Z"/>
  <path class="cls-1" d="M668.77,445.96c0-37.58-19.39-70.88-57.5-70.88-48.87,0-87.39,48.61-87.39,86.19s21.85,56.13,72.45,56.13c54.05,0,72.45-33.86,72.45-71.44Z"/>
  <path class="cls-1" d="M737.76,466.97h-42.51c-6.56,0-9.43,8.28-4.28,12.34l21.26,16.74c2.51,1.98,6.04,1.98,8.55,0l21.26-16.74c5.15-4.06,2.28-12.34-4.28-12.34Z"/>
  <path class="cls-1" d="M719.6,212.35s-.61-.04-1.77-.08c-1.16.05-1.77.08-1.77.08h3.54Z"/>
  <path class="cls-1" d="M408.26,378.36s62.6-9.73,82.45-48.53c19.85-38.8-49.09-142.66-49.09-142.66-22.8,16.18-33.37,191.19-33.37,191.19Z"/>
  <path class="cls-1" d="M821.73,375.08c-38.11,0-57.5,33.3-57.5,70.88s18.4,71.44,72.45,71.44c50.6,0,72.45-18.56,72.45-56.13s-38.52-86.19-87.39-86.19Z"/>
  <path class="cls-1" d="M994.02,187.17s-68.94,103.86-49.09,142.66,82.45,48.53,82.45,48.53c0,0-10.57-175.02-33.37-191.19Z"/>
  <rect class="cls-2" x="709.13" y="683.08" width="15.33" height="315.14"/>
  <path class="cls-1" d="M668.77,445.96c0-37.58-19.39-70.88-57.5-70.88-48.87,0-87.39,48.61-87.39,86.19s21.85,56.13,72.45,56.13c54.05,0,72.45-33.86,72.45-71.44Z"/>
  <polygon class="cls-1" points="572.17 606.44 712.04 665.27 567.32 571.57 572.17 606.44"/>
  <path class="cls-1" d="M737.76,466.97h-42.51c-6.56,0-9.43,8.28-4.28,12.34l21.26,16.74c2.51,1.98,6.04,1.98,8.55,0l21.26-16.74c5.15-4.06,2.28-12.34-4.28-12.34Z"/>
  <polygon class="cls-1" points="609.23 584.39 712.04 651.38 606.21 549.85 609.23 584.39"/>
  <path class="cls-1" d="M408.26,378.36s62.6-9.73,82.45-48.53c19.85-38.8-49.09-142.66-49.09-142.66-22.8,16.18-33.37,191.19-33.37,191.19Z"/>
  <path class="cls-1" d="M719.6,212.35s-.61-.04-1.77-.08c-1.16.05-1.77.08-1.77.08h3.54Z"/>
  <polygon class="cls-1" points="826.42 584.39 829.44 549.85 723.62 651.38 826.42 584.39"/>
  <path class="cls-1" d="M821.73,375.08c-38.11,0-57.5,33.3-57.5,70.88s18.4,71.44,72.45,71.44c50.6,0,72.45-18.56,72.45-56.13s-38.52-86.19-87.39-86.19Z"/>
  <path class="cls-1" d="M994.02,187.17s-68.94,103.86-49.09,142.66,82.45,48.53,82.45,48.53c0,0-10.57-175.02-33.37-191.19Z"/>
  <polygon class="cls-1" points="863.49 606.44 868.33 571.57 723.62 665.27 863.49 606.44"/>
  <path class="cls-2" d="M1108.19,662.39c-26.47-52.39-73.72-63.42-73.72-63.42,0,0,19.85-24.63,25.37-35.3,27.94-44.57,30.15-87.14,31.87-111.21.19-2.66,1.48-5.01-.88-6.24-23.88-12.53-43.81-41.36-50.68-52.12-1.68-2.63-2.63-5.66-2.79-8.78-8-153.26-28.15-196.51-37.89-208.6-2.43-3.01-6.18-4.61-10.03-4.28-81.98,7-140.46,55.91-140.46,55.91-62.7-17.92-120.46-16.52-131.15-16.08,1.16.05,1.77.08,1.77.08h-3.54s.61-.04,1.77-.08c-10.69-.44-68.44-1.84-131.15,16.08,0,0-58.48-48.91-140.46-55.91-3.86-.33-7.6,1.26-10.03,4.28-9.74,12.09-29.89,55.34-37.89,208.6-.16,3.12-1.11,6.15-2.79,8.78-6.86,10.76-26.8,39.6-50.68,52.12-2.36,1.24-1.48,3.65-.88,6.24,6.88,29.58,11.03,64.3,30.17,102.94,5.52,10.66,27.07,43.57,27.07,43.57,0,0-47.25,11.03-73.72,63.42s-18.94,159.02,36.58,181.08c54.39,21.61,114.08,2.99,103-45.48-.36-1.58.73-3.12,2.35-3.29,8.07-.81,29.97-4.35,44.82-19.32l-15.04-190.99,212.02,98.69v1.42h13.27v-1.42l212.02-98.69-15.04,190.99c14.85,14.97,36.75,18.51,44.82,19.32,1.62.16,2.71,1.7,2.35,3.29-11.08,48.48,48.6,67.09,103,45.48,55.52-22.06,63.06-128.69,36.58-181.08ZM490.72,329.83c-19.85,38.8-82.45,48.53-82.45,48.53,0,0,10.57-175.02,33.37-191.19,0,0,68.94,103.86,49.09,142.66ZM523.88,461.27c0-37.58,38.52-86.19,87.39-86.19,38.11,0,57.5,33.3,57.5,70.88s-18.4,71.44-72.45,71.44c-50.6,0-72.45-18.56-72.45-56.13ZM572.17,606.44l-4.85-34.87,144.72,93.7-139.87-58.83ZM609.23,584.39l-3.02-34.55,105.82,101.53-102.81-66.98ZM712.23,496.05l-21.26-16.74c-5.15-4.06-2.28-12.34,4.28-12.34h42.51c6.56,0,9.43,8.28,4.28,12.34l-21.26,16.74c-2.51,1.98-6.04,1.98-8.55,0ZM829.44,549.85l-3.02,34.55-102.81,66.98,105.82-101.53ZM863.49,606.44l-139.87,58.83,144.72-93.7-4.85,34.87ZM836.68,517.4c-54.05,0-72.45-33.86-72.45-71.44s19.39-70.88,57.5-70.88c48.87,0,87.39,48.61,87.39,86.19s-21.85,56.13-72.45,56.13ZM944.94,329.83c-19.85-38.8,49.09-142.66,49.09-142.66,22.8,16.18,33.37,191.19,33.37,191.19,0,0-62.6-9.73-82.45-48.53Z"/>
  <g>
    <path class="cls-2" d="M551.89,906.33c-.96.58-1.27,1.79-1.32,2.96-.23,41.16,6.06,77,28.76,121.19,5.43,10.28,12.15,20.86,19,30.4,30.59,42.64,59.85,86.5,81.12,119.61,4.29,6.64,8.27,12.97,12.07,18.85.85,1.22,1.81,2.28,3.06,3.14,72.8,25.03,155.13,38.64,230.86,39.06,4.79.05,6.84-.9,2.29-6.23-83.36-94.31-113-184.48-130.04-244.4-72.22-23.45-167.5-63.31-245.68-84.65l-.13.06Z"/>
    <path class="cls-2" d="M484.04,1057.41c-34.18-52.29-15.55-123.61-.7-162.64.68-1.64,1.3-3.95-.42-4.92-103.45-15.52-209.05,36.06-228.71,181.62-3.35,22.02-2.47,47.28,4.58,67.73,35.14,100.82,185.73,125.56,211.07,91.04,33.11-34.18,86.92-43.55,141.67-41.36,5.71.27,12.12.77,16.76,1.22,1.51.12,2.58.07,2.71-.35-42.16-33.33-105.32-66.75-146.77-132.06l-.17-.27Z"/>
    <path class="cls-2" d="M1134.73,917.62c.39-1.09.19-2.4-.3-3.83-2.17-5.74-4.61-11.37-7.12-16.89-7.53-18.38-31.41-56-33.08-56.24-1.37.31-2.17,1.7-3.71,3-5.7,5.48-11.34,9.65-18.3,13.42-23.18,13.74-52.71,10.74-57.3,9.66-.35.13-.58.69-.82,1.85-.39,2.04-.89,6.11-1.43,9.53-1.19,8.01-2.67,16.38-4.18,23.98-.4,2.09-.63,4.39.24,6.34,11.64,13.83,34.26,24.21,58.96,25.74,9.7.52,19.89-.21,29.22-1.93,13.27-2.44,24.88-6.75,34.54-11.56,1.32-.66,2.71-1.61,3.22-2.9l.06-.16Z"/>
    <path class="cls-2" d="M983.13,935.76c-26.61,43.33-56.81,64.15-106.08,68.9-1.79.14-4.45.48-5.08,1.92,20.75,64.32,74.29,167.87,171.18,215.17,2.8,1.23,5.57,1.81,8.25,1.43,107.32-33.56,121.71-128.67,110.35-233.24-.39-3.74-2.03-6.17-5.97-5.67-78.68,9.95-143.33-11.86-169.62-47.47-.72-.93-1.72-2-2.9-1.14l-.13.09Z"/>
  </g>
  <polygon class="cls-2" points="883.8 671.93 771.94 709.77 771.94 688.18 884.29 649.99 883.8 671.93"/>
  <polygon class="cls-2" points="866.47 722.46 771.94 754.44 771.94 732.67 865.87 700.89 866.47 722.46"/>
  <polygon class="cls-2" points="838.65 773.59 771.94 796.46 771.91 777.98 837.25 755.24 838.65 773.59"/>
  <path class="cls-2" d="M1015.72,725.42c.74-12.5-56.62-50-72.8-58.71-11.9-6.41-38.56,38.56-36.77,75.26,2.22,45.3,47.02,52.94,59.37,54.18,1.62.16,2.71,1.7,2.35,3.29-.24,1.03-.43,2.05-.6,3.05,27.19-16.73,47.81-66.35,48.45-77.07Z"/>
  <path class="cls-2" d="M419.93,725.42c-.74-12.5,56.62-50,72.8-58.71,11.9-6.41,38.56,38.56,36.77,75.26-2.22,45.3-47.02,52.94-59.37,54.18-1.62.16-2.71,1.7-2.35,3.29.24,1.03.43,2.05.6,3.05-27.19-16.73-47.81-66.35-48.45-77.07Z"/>
  <path class="cls-2" d="M787.53,459.39c0,25.35,13.28,34.51,29.66,34.51s29.66-1.46,29.66-26.8-15.48-50.67-31.86-50.67c-16.38,0-27.45,17.61-27.45,42.96Z"/>
</svg>